<svg width="300" height="200" viewBox="0 0 300 200" fill="none" xmlns="http://www.w3.org/2000/svg">
<rect width="300" height="200" fill="#24BB72"/>
<path d="M110.651 108.919H106.049V99.5222H97.4813V108.919H92.88V87.2593H97.4813V95.7H106.049V87.2593H110.651V108.919Z" fill="black"/>
<path d="M113.824 88.2148C113.824 86.7815 114.617 85.9852 116.204 85.9852C117.791 85.9852 118.584 86.7815 118.584 88.2148C118.584 88.8518 118.425 89.3296 117.949 89.8074C117.473 90.2852 116.839 90.4444 116.045 90.4444C114.617 90.4444 113.824 89.6481 113.824 88.2148ZM118.584 108.919H113.983V92.3556H118.425L118.584 108.919Z" fill="black"/>
<path d="M130.801 92.037C131.277 92.037 131.912 92.037 132.388 92.1963L132.071 96.4963C131.595 96.337 131.119 96.337 130.801 96.337C129.532 96.337 128.421 96.6556 127.469 97.4518C126.676 98.2481 126.2 99.5222 126.2 100.637V109.078H121.599V92.3556H124.931L125.565 95.2222H125.724C126.2 94.2667 126.993 93.4704 127.787 92.9926C128.739 92.3556 129.691 92.1963 130.801 92.037Z" fill="black"/>
<path d="M133.34 88.2148C133.34 86.7815 134.133 85.9852 135.72 85.9852C137.307 85.9852 138.259 86.7815 138.259 88.2148C138.259 88.8518 138.1 89.3296 137.624 89.8074C137.148 90.2852 136.513 90.4444 135.72 90.4444C134.292 90.4444 133.34 89.6481 133.34 88.2148ZM138.1 108.919H133.499V92.3556H137.941L138.1 108.919Z" fill="black"/>
<path d="M156.347 108.919H151.904V99.2037C151.904 98.2481 151.745 97.2926 151.269 96.4963C150.793 95.8593 150 95.5407 149.207 95.5407C148.096 95.3815 147.144 95.8593 146.509 96.8148C145.875 98.0889 145.557 99.5222 145.716 100.956V108.759H141.273V92.3556H144.764L145.399 94.4259H145.716C146.192 93.6296 146.985 92.9926 147.779 92.6741C148.731 92.1963 149.683 92.037 150.793 92.037C152.38 91.8778 153.967 92.5148 155.236 93.6296C156.347 94.9037 156.823 96.4963 156.664 98.0889V108.919H156.347Z" fill="black"/>
<path d="M173.641 92.3556V94.5852L171.103 95.2222C171.579 96.0185 171.896 96.8148 171.737 97.7704C171.737 99.363 171.103 100.956 169.833 101.911C168.405 103.026 166.501 103.504 164.756 103.344H163.963H163.328C163.011 103.663 162.693 103.981 162.693 104.619C162.693 105.256 163.487 105.574 165.232 105.574H168.088C169.516 105.415 171.103 105.893 172.213 106.689C173.165 107.485 173.8 108.759 173.641 110.193C173.641 111.944 172.848 113.696 171.261 114.652C169.199 115.767 166.819 116.404 164.28 116.244C162.376 116.404 160.631 115.926 159.044 114.97C157.933 114.174 157.14 112.9 157.299 111.626C157.299 110.67 157.616 109.715 158.251 109.078C159.044 108.281 159.996 107.804 160.948 107.644C160.472 107.485 159.996 107.167 159.679 106.689C158.885 105.893 158.885 104.619 159.679 103.663C160.155 103.185 160.631 102.707 161.265 102.389C160.472 102.07 159.679 101.433 159.203 100.637C158.727 99.6815 158.409 98.7259 158.409 97.7704C158.251 96.1778 159.044 94.5852 160.155 93.6296C161.583 92.5148 163.328 92.037 165.232 92.1963C165.708 92.1963 166.343 92.1963 166.819 92.3556C167.295 92.3556 167.612 92.5148 168.088 92.5148L173.641 92.3556ZM160.948 111.307C160.948 111.944 161.265 112.422 161.9 112.741C162.693 113.219 163.487 113.378 164.439 113.219C165.708 113.219 166.977 113.059 168.247 112.581C169.04 112.263 169.516 111.626 169.675 110.83C169.675 110.193 169.357 109.715 168.881 109.556C168.088 109.237 167.295 109.237 166.343 109.237H163.963C163.169 109.237 162.535 109.396 161.9 109.874C161.265 110.033 160.948 110.67 160.948 111.307ZM162.535 97.7704C162.535 98.5667 162.693 99.363 163.169 100C164.121 100.956 165.867 101.115 166.819 100C167.295 99.363 167.453 98.5667 167.453 97.7704C167.453 95.8593 166.66 94.7445 165.073 94.7445C163.487 94.7445 162.535 95.8593 162.535 97.7704Z" fill="black"/>
<path d="M183.637 100V109.078H181.099V87.2593H186.969C189.032 87.1 191.095 87.737 192.84 88.8519C194.109 89.9667 194.903 91.7185 194.744 93.4704C194.903 96.1778 192.999 98.5667 190.46 99.2037L196.331 108.919H193.316L188.08 100H183.637ZM183.637 97.7704H187.128C188.556 97.9296 189.825 97.4519 191.095 96.6556C192.047 95.8593 192.364 94.7444 192.364 93.4704C192.523 92.3556 192.047 91.0815 191.095 90.4444C189.825 89.6482 188.397 89.3296 186.969 89.4889H183.796L183.637 97.7704Z" fill="black"/>
<path d="M211.563 100.796C211.721 103.026 210.928 105.256 209.659 107.007C208.231 108.6 206.168 109.396 204.105 109.237C202.677 109.237 201.408 108.919 200.297 108.281C199.187 107.644 198.235 106.53 197.759 105.415C197.124 103.981 196.807 102.548 196.807 100.956C196.648 98.7259 197.441 96.4963 198.711 94.7444C200.139 93.3111 202.201 92.3556 204.264 92.5148C206.327 92.3556 208.231 93.3111 209.659 94.7444C211.087 96.4963 211.721 98.5667 211.563 100.796ZM199.345 100.796C199.187 102.548 199.663 104.141 200.615 105.574C202.36 107.644 205.533 107.804 207.596 105.893C207.755 105.733 207.913 105.733 207.913 105.574C208.865 104.141 209.341 102.548 209.183 100.796C209.341 99.0444 208.865 97.4519 207.913 96.0185C206.961 94.9037 205.692 94.2667 204.264 94.4259C202.836 94.2667 201.567 94.9037 200.615 96.0185C199.663 97.4519 199.187 99.2037 199.345 100.796Z" fill="black"/>
<path d="M228.223 100.796C228.381 103.026 227.588 105.256 226.16 107.007C224.732 108.6 222.669 109.396 220.607 109.237C219.179 109.237 217.909 108.919 216.799 108.281C215.688 107.644 214.736 106.53 214.26 105.415C213.625 103.981 213.308 102.548 213.308 100.956C213.149 98.7259 213.943 96.4963 215.212 94.7444C216.64 93.3111 218.703 92.3556 220.765 92.5148C222.828 92.3556 224.732 93.3111 226.16 94.7444C227.588 96.4963 228.223 98.5667 228.223 100.796ZM215.847 100.796C215.688 102.548 216.164 104.141 217.116 105.574C218.861 107.644 222.035 107.804 224.097 105.893C224.256 105.733 224.415 105.733 224.415 105.574C225.367 104.141 225.843 102.548 225.684 100.796C225.843 99.0444 225.367 97.4519 224.415 96.0185C223.463 94.9037 222.193 94.2667 220.765 94.4259C219.337 94.2667 218.068 94.9037 217.116 96.0185C216.164 97.4519 215.688 99.2037 215.847 100.796Z" fill="black"/>
<path d="M251.388 108.919V98.4074C251.388 97.2926 251.229 96.337 250.595 95.5407C249.96 94.9037 249.008 94.4259 248.056 94.5852C246.787 94.4259 245.517 94.9037 244.724 95.8593C243.931 96.9741 243.455 98.4074 243.613 99.8407V108.919H241.233V98.4074C241.233 97.2926 241.075 96.337 240.44 95.5407C239.805 94.9037 238.853 94.4259 237.901 94.5852C236.632 94.4259 235.363 95.063 234.569 96.0185C233.776 97.4519 233.3 99.0444 233.459 100.637V109.237H231.079V92.8333H233.141L233.459 95.063H233.617C234.093 94.2667 234.728 93.6296 235.521 93.1519C236.473 92.6741 237.425 92.5148 238.377 92.5148C240.44 92.1963 242.503 93.3111 243.296 95.2222H243.455C243.931 94.4259 244.724 93.6296 245.517 93.1519C246.469 92.6741 247.58 92.3556 248.691 92.3556C250.119 92.1963 251.705 92.6741 252.816 93.7889C253.768 95.063 254.244 96.6556 254.244 98.2482V108.759H251.388V108.919Z" fill="black"/>
<path d="M46.0733 73.4037V126.596H82.884V73.4037H46.0733ZM74.6333 121.5L48.2947 124.685V75.3148L74.6333 78.5V121.5Z" fill="white"/>
<path d="M231.872 118.633C231.872 119.589 231.555 120.544 230.761 121.181C229.809 121.819 228.699 122.137 227.429 122.137H226.16V126.437H224.891V115.448H227.747C230.444 115.448 231.872 116.404 231.872 118.633ZM226.16 121.022H227.271C228.064 121.022 229.016 120.863 229.809 120.544C230.285 120.067 230.603 119.43 230.603 118.793C230.603 118.156 230.444 117.519 229.968 117.2C229.333 116.722 228.54 116.563 227.747 116.722H226.16V121.022Z" fill="#24BB72"/>
<path d="M235.839 121.819V126.437H234.569V115.448H237.584C238.695 115.289 239.647 115.607 240.599 116.244C241.233 116.881 241.709 117.678 241.551 118.633C241.551 120.067 240.757 121.341 239.329 121.659L242.344 126.596H240.757L238.06 121.978H235.839V121.819ZM235.839 120.704H237.584C238.219 120.704 239.012 120.544 239.647 120.226C240.123 119.748 240.281 119.27 240.281 118.633C240.281 117.996 240.123 117.359 239.647 117.041C239.012 116.722 238.377 116.563 237.584 116.563H235.839V120.704Z" fill="#24BB72"/>
<path d="M253.927 120.863C254.085 122.296 253.451 123.889 252.499 125.004C251.547 126.119 250.119 126.596 248.849 126.596C247.421 126.756 245.993 126.119 245.041 125.163C244.089 124.048 243.613 122.456 243.772 120.863C243.613 119.43 244.089 117.837 245.041 116.722C245.993 115.767 247.421 115.13 248.849 115.289C250.277 115.289 251.547 115.767 252.499 116.881C253.451 117.996 253.927 119.43 253.927 120.863ZM245.2 120.863C245.041 122.137 245.517 123.252 246.152 124.207C246.787 125.004 247.897 125.481 249.008 125.322C250.119 125.322 251.071 125.004 251.705 124.207C252.34 123.252 252.657 121.978 252.657 120.863C252.816 119.589 252.34 118.474 251.705 117.519C251.071 116.722 249.96 116.244 249.008 116.404C247.897 116.404 246.945 116.722 246.152 117.519C245.359 118.474 245.041 119.748 245.2 120.863Z" fill="#24BB72"/>
</svg>
